# xmcd CD database file
# Copyright (C) 1993-1998 Ti Kan
# 
# Track frame offsets:
#     150
#     24175
#     41597
#     66300
#     81412
# 
# Disc length: 1336 seconds
# 
# Revision: 1
# Processed by: cddbd v1.4b41PL1 Copyright (c) Steve Scherf et al.
# Submitted via: DiscPlay 4.0.3
# 
DISCID=39053605
DTITLE=Belly Dance - Fun Doping
DYEAR=1900
DGENRE=
TTITLE0=Fun dopin' (get loaded)
TTITLE1=Green revolution
TTITLE2=Funk explosion
TTITLE3=Move your body
TTITLE4=Fun dopin' (get loaded)
EXTD=
EXTT0=
EXTT1=
EXTT2=
EXTT3=
EXTT4=
PLAYORDER=
